<mxfile host="Electron" modified="2023-12-25T22:29:48.653Z" agent="Mozilla/5.0 (Windows NT 10.0; Win64; x64) AppleWebKit/537.36 (KHTML, like Gecko) draw.io/22.1.2 Chrome/114.0.5735.289 Electron/25.9.4 Safari/537.36" etag="j25Rnz3gEgBx9Yawok1N" version="22.1.2" type="device">
  <diagram name="Page-1" id="T_b5fMJmoMe5xamij2MU">
    <mxGraphModel dx="810" dy="496" grid="1" gridSize="10" guides="1" tooltips="1" connect="1" arrows="1" fold="1" page="1" pageScale="1" pageWidth="827" pageHeight="583" math="0" shadow="0">
      <root>
        <mxCell id="0" />
        <mxCell id="1" parent="0" />
        <mxCell id="m9zGqahzwwv1Aef4zu2V-3" value="&lt;u style=&quot;border-color: var(--border-color);&quot;&gt;:Vendeur&lt;/u&gt;" style="rounded=0;whiteSpace=wrap;html=1;" parent="1" vertex="1">
          <mxGeometry x="229" y="140" width="80" height="30" as="geometry" />
        </mxCell>
        <mxCell id="m9zGqahzwwv1Aef4zu2V-2" value="" style="shape=umlActor;verticalLabelPosition=bottom;verticalAlign=top;html=1;outlineConnect=0;" parent="1" vertex="1">
          <mxGeometry x="254" y="60" width="30" height="60" as="geometry" />
        </mxCell>
        <mxCell id="m9zGqahzwwv1Aef4zu2V-7" value="" style="endArrow=none;dashed=1;html=1;rounded=0;entryX=0.5;entryY=1;entryDx=0;entryDy=0;" parent="1" target="m9zGqahzwwv1Aef4zu2V-3" edge="1">
          <mxGeometry width="50" height="50" relative="1" as="geometry">
            <mxPoint x="269" y="500" as="sourcePoint" />
            <mxPoint x="284" y="220" as="targetPoint" />
          </mxGeometry>
        </mxCell>
        <mxCell id="m9zGqahzwwv1Aef4zu2V-9" value="&lt;u style=&quot;border-color: var(--border-color); color: rgb(0, 0, 0); font-family: Helvetica; font-size: 12px; font-style: normal; font-variant-ligatures: normal; font-variant-caps: normal; font-weight: 400; letter-spacing: normal; orphans: 2; text-align: center; text-indent: 0px; text-transform: none; widows: 2; word-spacing: 0px; -webkit-text-stroke-width: 0px; background-color: rgb(251, 251, 251);&quot;&gt;:Systeme&lt;/u&gt;" style="rounded=0;whiteSpace=wrap;html=1;" parent="1" vertex="1">
          <mxGeometry x="359" y="140" width="80" height="30" as="geometry" />
        </mxCell>
        <mxCell id="m9zGqahzwwv1Aef4zu2V-10" value="" style="endArrow=none;dashed=1;html=1;rounded=0;entryX=0.5;entryY=1;entryDx=0;entryDy=0;" parent="1" source="m9zGqahzwwv1Aef4zu2V-16" target="m9zGqahzwwv1Aef4zu2V-9" edge="1">
          <mxGeometry width="50" height="50" relative="1" as="geometry">
            <mxPoint x="399" y="330" as="sourcePoint" />
            <mxPoint x="139" y="180" as="targetPoint" />
          </mxGeometry>
        </mxCell>
        <mxCell id="m9zGqahzwwv1Aef4zu2V-13" value="" style="endArrow=openAsync;html=1;rounded=0;endFill=0;" parent="1" target="m9zGqahzwwv1Aef4zu2V-16" edge="1">
          <mxGeometry width="50" height="50" relative="1" as="geometry">
            <mxPoint x="269" y="200" as="sourcePoint" />
            <mxPoint x="379" y="200" as="targetPoint" />
          </mxGeometry>
        </mxCell>
        <mxCell id="m9zGqahzwwv1Aef4zu2V-14" value="&lt;u style=&quot;border-color: var(--border-color); color: rgb(0, 0, 0); font-family: Helvetica; font-size: 12px; font-style: normal; font-variant-ligatures: normal; font-variant-caps: normal; font-weight: 400; letter-spacing: normal; orphans: 2; text-align: center; text-indent: 0px; text-transform: none; widows: 2; word-spacing: 0px; -webkit-text-stroke-width: 0px; background-color: rgb(251, 251, 251);&quot;&gt;veSt:VenteStand&lt;/u&gt;" style="rounded=0;whiteSpace=wrap;html=1;" parent="1" vertex="1">
          <mxGeometry x="564" y="281" width="90" height="30" as="geometry" />
        </mxCell>
        <mxCell id="m9zGqahzwwv1Aef4zu2V-15" value="" style="endArrow=none;dashed=1;html=1;rounded=0;entryX=0.5;entryY=1;entryDx=0;entryDy=0;" parent="1" source="m9zGqahzwwv1Aef4zu2V-48" target="m9zGqahzwwv1Aef4zu2V-14" edge="1">
          <mxGeometry width="50" height="50" relative="1" as="geometry">
            <mxPoint x="609" y="510" as="sourcePoint" />
            <mxPoint x="255" y="320" as="targetPoint" />
          </mxGeometry>
        </mxCell>
        <mxCell id="m9zGqahzwwv1Aef4zu2V-18" value="" style="endArrow=none;dashed=1;html=1;rounded=0;entryX=0.5;entryY=1;entryDx=0;entryDy=0;" parent="1" source="m9zGqahzwwv1Aef4zu2V-23" target="m9zGqahzwwv1Aef4zu2V-16" edge="1">
          <mxGeometry width="50" height="50" relative="1" as="geometry">
            <mxPoint x="399" y="330" as="sourcePoint" />
            <mxPoint x="399" y="170" as="targetPoint" />
          </mxGeometry>
        </mxCell>
        <mxCell id="m9zGqahzwwv1Aef4zu2V-16" value="" style="html=1;points=[[0,0,0,0,5],[0,1,0,0,-5],[1,0,0,0,5],[1,1,0,0,-5]];perimeter=orthogonalPerimeter;outlineConnect=0;targetShapes=umlLifeline;portConstraint=eastwest;newEdgeStyle={&quot;curved&quot;:0,&quot;rounded&quot;:0};" parent="1" vertex="1">
          <mxGeometry x="394" y="199" width="10" height="21" as="geometry" />
        </mxCell>
        <mxCell id="m9zGqahzwwv1Aef4zu2V-19" value="&lt;font style=&quot;font-size: 10px;&quot;&gt;scannerChariot()&lt;/font&gt;" style="text;html=1;align=center;verticalAlign=middle;resizable=0;points=[];autosize=1;strokeColor=none;fillColor=none;" parent="1" vertex="1">
          <mxGeometry x="284" y="176" width="100" height="30" as="geometry" />
        </mxCell>
        <mxCell id="m9zGqahzwwv1Aef4zu2V-21" value="" style="endArrow=open;html=1;rounded=0;endFill=0;dashed=1;dashPattern=8 8;" parent="1" source="m9zGqahzwwv1Aef4zu2V-16" edge="1">
          <mxGeometry width="50" height="50" relative="1" as="geometry">
            <mxPoint x="384" y="220" as="sourcePoint" />
            <mxPoint x="274" y="220" as="targetPoint" />
          </mxGeometry>
        </mxCell>
        <mxCell id="m9zGqahzwwv1Aef4zu2V-22" value="&lt;font style=&quot;font-size: 10px;&quot;&gt;codeChariot&lt;/font&gt;" style="text;html=1;align=center;verticalAlign=middle;resizable=0;points=[];autosize=1;strokeColor=none;fillColor=none;" parent="1" vertex="1">
          <mxGeometry x="294" y="197.5" width="80" height="30" as="geometry" />
        </mxCell>
        <mxCell id="m9zGqahzwwv1Aef4zu2V-24" value="" style="endArrow=none;dashed=1;html=1;rounded=0;entryX=0.5;entryY=1;entryDx=0;entryDy=0;" parent="1" source="m9zGqahzwwv1Aef4zu2V-30" target="m9zGqahzwwv1Aef4zu2V-23" edge="1">
          <mxGeometry width="50" height="50" relative="1" as="geometry">
            <mxPoint x="399" y="330" as="sourcePoint" />
            <mxPoint x="399" y="220" as="targetPoint" />
          </mxGeometry>
        </mxCell>
        <mxCell id="m9zGqahzwwv1Aef4zu2V-23" value="" style="html=1;points=[[0,0,0,0,5],[0,1,0,0,-5],[1,0,0,0,5],[1,1,0,0,-5]];perimeter=orthogonalPerimeter;outlineConnect=0;targetShapes=umlLifeline;portConstraint=eastwest;newEdgeStyle={&quot;curved&quot;:0,&quot;rounded&quot;:0};" parent="1" vertex="1">
          <mxGeometry x="394" y="250" width="10" height="21" as="geometry" />
        </mxCell>
        <mxCell id="m9zGqahzwwv1Aef4zu2V-25" value="" style="endArrow=openAsync;html=1;rounded=0;endFill=0;" parent="1" target="m9zGqahzwwv1Aef4zu2V-23" edge="1">
          <mxGeometry width="50" height="50" relative="1" as="geometry">
            <mxPoint x="274" y="250" as="sourcePoint" />
            <mxPoint x="404" y="220" as="targetPoint" />
          </mxGeometry>
        </mxCell>
        <mxCell id="m9zGqahzwwv1Aef4zu2V-26" value="&lt;font style=&quot;font-size: 10px;&quot;&gt;scannerCarte()&lt;/font&gt;" style="text;html=1;align=center;verticalAlign=middle;resizable=0;points=[];autosize=1;strokeColor=none;fillColor=none;" parent="1" vertex="1">
          <mxGeometry x="290" y="225.5" width="90" height="30" as="geometry" />
        </mxCell>
        <mxCell id="m9zGqahzwwv1Aef4zu2V-27" value="" style="endArrow=open;html=1;rounded=0;endFill=0;dashed=1;dashPattern=8 8;" parent="1" source="m9zGqahzwwv1Aef4zu2V-23" edge="1">
          <mxGeometry width="50" height="50" relative="1" as="geometry">
            <mxPoint x="384" y="280" as="sourcePoint" />
            <mxPoint x="274" y="270" as="targetPoint" />
          </mxGeometry>
        </mxCell>
        <mxCell id="m9zGqahzwwv1Aef4zu2V-28" value="&lt;font style=&quot;font-size: 10px;&quot;&gt;matriculeVendeur&lt;/font&gt;" style="text;html=1;align=center;verticalAlign=middle;resizable=0;points=[];autosize=1;strokeColor=none;fillColor=none;" parent="1" vertex="1">
          <mxGeometry x="285" y="245.5" width="100" height="30" as="geometry" />
        </mxCell>
        <mxCell id="m9zGqahzwwv1Aef4zu2V-31" value="" style="endArrow=none;dashed=1;html=1;rounded=0;entryX=0.5;entryY=1;entryDx=0;entryDy=0;" parent="1" target="m9zGqahzwwv1Aef4zu2V-30" edge="1">
          <mxGeometry width="50" height="50" relative="1" as="geometry">
            <mxPoint x="399" y="500" as="sourcePoint" />
            <mxPoint x="399" y="271" as="targetPoint" />
          </mxGeometry>
        </mxCell>
        <mxCell id="m9zGqahzwwv1Aef4zu2V-30" value="" style="html=1;points=[[0,0,0,0,5],[0,1,0,0,-5],[1,0,0,0,5],[1,1,0,0,-5]];perimeter=orthogonalPerimeter;outlineConnect=0;targetShapes=umlLifeline;portConstraint=eastwest;newEdgeStyle={&quot;curved&quot;:0,&quot;rounded&quot;:0};fillColor=#d5e8d4;strokeColor=#82b366;" parent="1" vertex="1">
          <mxGeometry x="394" y="290" width="10" height="30" as="geometry" />
        </mxCell>
        <mxCell id="m9zGqahzwwv1Aef4zu2V-32" value="" style="endArrow=openAsync;html=1;rounded=0;endFill=0;" parent="1" target="m9zGqahzwwv1Aef4zu2V-30" edge="1">
          <mxGeometry width="50" height="50" relative="1" as="geometry">
            <mxPoint x="274" y="290" as="sourcePoint" />
            <mxPoint x="404" y="260" as="targetPoint" />
          </mxGeometry>
        </mxCell>
        <mxCell id="m9zGqahzwwv1Aef4zu2V-33" value="&lt;font style=&quot;font-size: 10px;&quot;&gt;creerVenteStand()&lt;/font&gt;" style="text;html=1;align=center;verticalAlign=middle;resizable=0;points=[];autosize=1;strokeColor=none;fillColor=none;" parent="1" vertex="1">
          <mxGeometry x="285" y="268" width="100" height="30" as="geometry" />
        </mxCell>
        <mxCell id="m9zGqahzwwv1Aef4zu2V-35" value="" style="endArrow=open;html=1;rounded=0;endFill=0;dashed=1;dashPattern=8 8;exitX=1;exitY=0;exitDx=0;exitDy=5;exitPerimeter=0;entryX=0;entryY=0.5;entryDx=0;entryDy=0;" parent="1" source="m9zGqahzwwv1Aef4zu2V-30" target="m9zGqahzwwv1Aef4zu2V-14" edge="1">
          <mxGeometry width="50" height="50" relative="1" as="geometry">
            <mxPoint x="404" y="230" as="sourcePoint" />
            <mxPoint x="454" y="301" as="targetPoint" />
          </mxGeometry>
        </mxCell>
        <mxCell id="m9zGqahzwwv1Aef4zu2V-36" value="&lt;font style=&quot;font-size: 10px;&quot;&gt;new VenteStand(&lt;br&gt;codeChariot, matriculeVendeur)&lt;/font&gt;" style="text;html=1;align=center;verticalAlign=middle;resizable=0;points=[];autosize=1;strokeColor=none;fillColor=none;" parent="1" vertex="1">
          <mxGeometry x="404" y="254" width="160" height="40" as="geometry" />
        </mxCell>
        <mxCell id="m9zGqahzwwv1Aef4zu2V-37" value="" style="endArrow=open;html=1;rounded=0;endFill=0;dashed=1;dashPattern=8 8;fillColor=#d5e8d4;strokeColor=#00CC00;" parent="1" source="m9zGqahzwwv1Aef4zu2V-30" edge="1">
          <mxGeometry width="50" height="50" relative="1" as="geometry">
            <mxPoint x="384" y="330" as="sourcePoint" />
            <mxPoint x="274" y="320" as="targetPoint" />
          </mxGeometry>
        </mxCell>
        <mxCell id="m9zGqahzwwv1Aef4zu2V-38" value="&lt;font color=&quot;#00cc00&quot; style=&quot;font-size: 10px;&quot;&gt;veSt&lt;/font&gt;" style="text;html=1;align=center;verticalAlign=middle;resizable=0;points=[];autosize=1;strokeColor=none;fillColor=none;" parent="1" vertex="1">
          <mxGeometry x="315" y="294" width="40" height="30" as="geometry" />
        </mxCell>
        <mxCell id="m9zGqahzwwv1Aef4zu2V-39" value="LOOP" style="shape=umlFrame;whiteSpace=wrap;html=1;pointerEvents=0;movable=1;resizable=1;rotatable=1;deletable=1;editable=1;locked=0;connectable=1;" parent="1" vertex="1">
          <mxGeometry x="174" y="330" width="460" height="130" as="geometry" />
        </mxCell>
        <mxCell id="m9zGqahzwwv1Aef4zu2V-40" value="[ * articles&lt;br&gt;à scanner ]" style="text;html=1;align=center;verticalAlign=middle;resizable=0;points=[];autosize=1;strokeColor=none;fillColor=none;" parent="1" vertex="1">
          <mxGeometry x="174" y="370" width="80" height="40" as="geometry" />
        </mxCell>
        <mxCell id="m9zGqahzwwv1Aef4zu2V-43" value="" style="endArrow=openAsync;html=1;rounded=0;endFill=0;" parent="1" edge="1">
          <mxGeometry width="50" height="50" relative="1" as="geometry">
            <mxPoint x="274" y="360" as="sourcePoint" />
            <mxPoint x="394" y="360" as="targetPoint" />
          </mxGeometry>
        </mxCell>
        <mxCell id="m9zGqahzwwv1Aef4zu2V-44" value="" style="html=1;points=[[0,0,0,0,5],[0,1,0,0,-5],[1,0,0,0,5],[1,1,0,0,-5]];perimeter=orthogonalPerimeter;outlineConnect=0;targetShapes=umlLifeline;portConstraint=eastwest;newEdgeStyle={&quot;curved&quot;:0,&quot;rounded&quot;:0};fillColor=#d5e8d4;strokeColor=#82b366;" parent="1" vertex="1">
          <mxGeometry x="394" y="360" width="10" height="80" as="geometry" />
        </mxCell>
        <mxCell id="m9zGqahzwwv1Aef4zu2V-45" value="&lt;font style=&quot;font-size: 10px;&quot;&gt;scannerArticle()&lt;/font&gt;" style="text;html=1;align=center;verticalAlign=middle;resizable=0;points=[];autosize=1;strokeColor=none;fillColor=none;" parent="1" vertex="1">
          <mxGeometry x="290" y="332" width="90" height="30" as="geometry" />
        </mxCell>
        <mxCell id="m9zGqahzwwv1Aef4zu2V-46" value="" style="curved=1;endArrow=open;html=1;rounded=0;exitX=1;exitY=0;exitDx=0;exitDy=5;exitPerimeter=0;endFill=0;strokeColor=#00CC00;" parent="1" source="m9zGqahzwwv1Aef4zu2V-44" target="m9zGqahzwwv1Aef4zu2V-44" edge="1">
          <mxGeometry width="50" height="50" relative="1" as="geometry">
            <mxPoint x="444" y="310" as="sourcePoint" />
            <mxPoint x="494" y="260" as="targetPoint" />
            <Array as="points">
              <mxPoint x="434" y="360" />
              <mxPoint x="414" y="340" />
            </Array>
          </mxGeometry>
        </mxCell>
        <mxCell id="m9zGqahzwwv1Aef4zu2V-47" value="&lt;span style=&quot;font-size: 10px;&quot;&gt;&lt;font color=&quot;#00cc00&quot;&gt;recupererPrix( codeArticle )&lt;/font&gt;&lt;/span&gt;" style="text;html=1;align=center;verticalAlign=middle;resizable=0;points=[];autosize=1;strokeColor=none;fillColor=none;" parent="1" vertex="1">
          <mxGeometry x="418" y="338" width="150" height="30" as="geometry" />
        </mxCell>
        <mxCell id="m9zGqahzwwv1Aef4zu2V-49" value="" style="endArrow=open;html=1;rounded=0;endFill=0;strokeColor=#00CC00;" parent="1" source="m9zGqahzwwv1Aef4zu2V-44" target="m9zGqahzwwv1Aef4zu2V-48" edge="1">
          <mxGeometry width="50" height="50" relative="1" as="geometry">
            <mxPoint x="414" y="400" as="sourcePoint" />
            <mxPoint x="604" y="390" as="targetPoint" />
          </mxGeometry>
        </mxCell>
        <mxCell id="m9zGqahzwwv1Aef4zu2V-50" value="" style="endArrow=none;dashed=1;html=1;rounded=0;entryX=0.5;entryY=1;entryDx=0;entryDy=0;" parent="1" target="m9zGqahzwwv1Aef4zu2V-48" edge="1">
          <mxGeometry width="50" height="50" relative="1" as="geometry">
            <mxPoint x="609" y="500" as="sourcePoint" />
            <mxPoint x="609" y="311" as="targetPoint" />
          </mxGeometry>
        </mxCell>
        <mxCell id="m9zGqahzwwv1Aef4zu2V-48" value="" style="html=1;points=[[0,0,0,0,5],[0,1,0,0,-5],[1,0,0,0,5],[1,1,0,0,-5]];perimeter=orthogonalPerimeter;outlineConnect=0;targetShapes=umlLifeline;portConstraint=eastwest;newEdgeStyle={&quot;curved&quot;:0,&quot;rounded&quot;:0};fillColor=#d5e8d4;strokeColor=#82b366;" parent="1" vertex="1">
          <mxGeometry x="604" y="400" width="10" height="20" as="geometry" />
        </mxCell>
        <mxCell id="m9zGqahzwwv1Aef4zu2V-51" value="&lt;span style=&quot;font-size: 10px;&quot;&gt;&lt;font color=&quot;#00cc00&quot;&gt;ajouterArticle(codeArticle, prix)&lt;/font&gt;&lt;/span&gt;" style="text;html=1;align=center;verticalAlign=middle;resizable=0;points=[];autosize=1;strokeColor=none;fillColor=none;" parent="1" vertex="1">
          <mxGeometry x="428" y="370" width="160" height="30" as="geometry" />
        </mxCell>
        <mxCell id="m9zGqahzwwv1Aef4zu2V-52" value="" style="endArrow=open;html=1;rounded=0;endFill=0;dashed=1;dashPattern=8 8;entryX=1;entryY=0.75;entryDx=0;entryDy=0;entryPerimeter=0;strokeColor=#00CC00;" parent="1" source="m9zGqahzwwv1Aef4zu2V-48" target="m9zGqahzwwv1Aef4zu2V-44" edge="1">
          <mxGeometry width="50" height="50" relative="1" as="geometry">
            <mxPoint x="614" y="430" as="sourcePoint" />
            <mxPoint x="414" y="420" as="targetPoint" />
          </mxGeometry>
        </mxCell>
        <mxCell id="m9zGqahzwwv1Aef4zu2V-53" value="" style="endArrow=open;html=1;rounded=0;endFill=0;dashed=1;dashPattern=8 8;strokeColor=#00CC00;" parent="1" source="m9zGqahzwwv1Aef4zu2V-44" edge="1">
          <mxGeometry width="50" height="50" relative="1" as="geometry">
            <mxPoint x="504" y="460" as="sourcePoint" />
            <mxPoint x="274" y="440" as="targetPoint" />
          </mxGeometry>
        </mxCell>
        <mxCell id="m9zGqahzwwv1Aef4zu2V-54" value="&lt;font color=&quot;#00cc00&quot; style=&quot;font-size: 10px;&quot;&gt;codeArticle&lt;/font&gt;" style="text;html=1;align=center;verticalAlign=middle;resizable=0;points=[];autosize=1;strokeColor=none;fillColor=none;" parent="1" vertex="1">
          <mxGeometry x="304" y="415" width="70" height="30" as="geometry" />
        </mxCell>
      </root>
    </mxGraphModel>
  </diagram>
</mxfile>
